<mxfile host="app.diagrams.net" modified="2023-05-23T14:38:30.436Z" agent="Mozilla/5.0 (Windows NT 10.0; Win64; x64) AppleWebKit/537.36 (KHTML, like Gecko) Chrome/113.0.0.0 Safari/537.36" version="21.3.3" etag="Xk4wqjqKzQqk0OQqCwIJ" type="github">
  <diagram name="Page-1" id="8wmuvuhrfv7lfPoiPv7g">
    <mxGraphModel>
      <root>
        <mxCell id="0" />
        <mxCell id="1" parent="0" />
      </root>
    </mxGraphModel>
  </diagram>
</mxfile>
